<?xml version="1.0" encoding="UTF-8" standalone="no"?>
<!DOCTYPE svg PUBLIC "-//W3C//DTD SVG 1.1//EN" "http://www.w3.org/Graphics/SVG/1.1/DTD/svg11.dtd">
<svg xmlns="http://www.w3.org/2000/svg" version="1.1" viewBox="0.00 0.00 200.00 200.00">
<path fill="#71c9bb" d="
  M 141.06 12.92
  C 175.54 28.96 195.86 63.02 198.10 100.41
  C 198.14 101.03 197.55 102.14 197.45 102.89
  C 192.26 140.28 170.95 174.59 134.93 189.41
  C 113.99 198.04 93.52 199.33 71.25 192.79
  C 58.57 189.07 51.97 184.63 42.08 174.70
  Q 32.28 164.87 22.79 154.75
  Q 17.21 148.80 12.87 141.90
  C 7.48 133.32 5.51 122.27 4.85 112.32
  Q 3.77 96.08 4.02 81.50
  C 4.17 72.54 5.48 64.22 10.18 56.16
  C 16.32 45.63 24.76 37.45 34.28 28.27
  C 45.67 17.29 56.71 8.13 72.29 5.53
  Q 92.94 2.09 111.50 4.25
  Q 126.06 5.94 141.06 12.92
  Z
  M 110.82 84.69
  Q 111.06 86.26 109.81 85.28
  L 69.67 53.65
  A 1.60 1.60 0.0 0 0 67.45 53.89
  L 55.76 68.20
  Q 54.12 70.20 56.19 71.77
  L 90.88 98.13
  A 1.66 1.64 -49.9 0 1 91.08 100.57
  Q 90.16 101.55 88.80 102.52
  Q 72.16 114.43 55.86 127.64
  A 1.78 1.78 0.0 0 0 55.64 130.19
  Q 60.74 136.01 65.25 142.79
  Q 66.21 144.23 67.34 145.23
  Q 68.62 146.37 69.97 145.31
  L 110.07 113.58
  A 0.35 0.34 -17.9 0 1 110.63 113.86
  Q 110.56 115.57 110.28 117.36
  Q 107.81 132.93 105.30 148.50
  Q 105.06 150.03 105.13 151.20
  A 1.47 1.45 2.7 0 0 106.37 152.55
  L 125.33 155.33
  Q 125.82 155.41 126.21 155.08
  Q 127.42 154.05 127.72 151.99
  Q 131.08 128.76 134.27 105.50
  Q 135.14 99.13 134.19 92.76
  Q 130.64 68.91 127.61 45.36
  A 1.77 1.77 0.0 0 0 125.71 43.82
  Q 116.47 44.57 108.00 45.74
  Q 106.55 45.94 105.59 46.36
  Q 104.96 46.63 105.07 47.30
  L 110.82 84.69
  Z"
/>
</svg>
